<?xml version="1.0" standalone="no"?>
<!DOCTYPE svg PUBLIC "-//W3C//DTD SVG 20010904//EN"
 "http://www.w3.org/TR/2001/REC-SVG-20010904/DTD/svg10.dtd">
<svg version="1.0" xmlns="http://www.w3.org/2000/svg"
 width="351.000000pt" height="370.000000pt" viewBox="0 0 351.000000 370.000000"
 preserveAspectRatio="xMidYMid meet">
<g transform="translate(0.000000,370.000000) scale(0.100000,-0.100000)"
fill="#000000" stroke="none">
<path d="M1567 3659 c-314 -36 -606 -161 -862 -369 -86 -70 -232 -222 -291
-304 l-44 -60 60 -18 c33 -11 58 -23 55 -28 -4 -6 1 -7 11 -3 11 4 15 2 11 -4
-4 -6 1 -10 10 -9 10 0 19 -9 23 -24 4 -17 8 -21 14 -12 4 6 4 17 1 22 -3 6 1
10 9 10 9 0 16 -4 16 -10 0 -5 6 -7 14 -4 7 3 16 -2 19 -10 3 -8 14 -12 24
-10 10 3 48 -13 87 -37 60 -36 72 -40 93 -30 13 6 29 8 35 5 6 -4 9 -3 5 2 -3
5 0 16 6 25 15 19 141 109 154 109 6 0 18 9 27 19 10 11 25 17 34 14 13 -4 14
-3 4 5 -10 6 5 20 55 52 37 24 80 51 96 62 15 10 33 16 39 12 6 -4 8 -3 5 3
-9 14 102 105 116 96 5 -3 7 -1 3 5 -7 11 57 55 80 55 8 0 12 3 9 5 -5 6 72
65 79 60 2 -2 12 5 22 14 11 9 46 26 79 39 33 12 62 25 65 29 11 15 51 31 62
24 6 -4 8 -3 5 3 -8 13 50 36 66 26 6 -3 7 -1 3 5 -4 7 8 15 31 21 51 15 247
26 270 16 10 -4 29 -10 43 -12 14 -2 29 -8 34 -14 6 -5 18 -9 28 -9 29 0 116
-88 139 -139 59 -134 69 -180 66 -316 -2 -114 -5 -134 -23 -160 -12 -17 -19
-35 -17 -42 5 -13 -31 -89 -55 -115 -12 -15 -18 -16 -31 -5 -14 10 -14 10 -3
-5 15 -19 0 -38 -89 -110 -64 -52 -141 -128 -219 -219 -30 -35 -73 -82 -96
-104 -23 -22 -51 -55 -63 -73 -13 -18 -27 -30 -32 -27 -5 4 -6 0 -4 -8 3 -7
-3 -22 -15 -32 -11 -10 -20 -22 -20 -27 0 -15 -27 -38 -36 -30 -5 4 -6 3 -2
-2 4 -5 0 -21 -10 -35 -9 -14 -22 -35 -29 -46 -6 -11 -16 -19 -23 -17 -6 1 -9
-2 -5 -8 8 -13 -14 -42 -26 -35 -4 3 -6 -6 -3 -21 3 -14 1 -31 -4 -38 -6 -6
-18 -37 -28 -68 -10 -34 -22 -55 -28 -51 -8 4 -8 2 -1 -5 6 -6 9 -32 7 -57
l-4 -45 -45 0 c-39 0 -44 -2 -38 -17 20 -51 53 -179 48 -187 -4 -5 -1 -6 5 -2
6 3 14 -4 17 -16 16 -52 60 -133 87 -161 16 -17 31 -41 34 -53 3 -12 11 -25
18 -27 7 -3 25 -30 39 -61 14 -30 36 -60 47 -66 12 -7 19 -14 16 -17 -3 -3 5
-14 17 -24 12 -10 18 -18 13 -19 -5 0 -3 -7 4 -15 7 -8 16 -12 21 -10 11 7 30
-30 21 -40 -4 -5 -2 -5 5 -1 16 9 58 -19 80 -54 20 -32 119 -106 176 -133 24
-10 35 -22 31 -29 -4 -6 -3 -8 3 -5 6 4 22 -2 36 -13 14 -11 34 -20 44 -20 10
0 30 -8 43 -17 14 -10 26 -16 28 -15 1 2 22 -6 47 -18 24 -11 56 -23 72 -26
45 -8 68 -16 75 -28 6 -8 8 -8 8 1 0 6 9 9 21 6 18 -5 20 -11 15 -42 -3 -20
-9 -60 -12 -88 -4 -29 -10 -51 -13 -48 -4 2 -5 -12 -3 -31 2 -19 6 -34 9 -34
2 0 30 16 61 36 201 129 420 366 554 599 329 575 329 1302 -1 1880 -141 248
-358 475 -601 629 -297 188 -683 276 -1033 235z"/>
<path d="M1904 3418 c-4 -7 -3 -8 4 -4 7 4 12 9 12 12 0 8 -9 4 -16 -8z"/>
<path d="M2185 3370 c3 -5 8 -10 11 -10 3 0 2 5 -1 10 -3 6 -8 10 -11 10 -3 0
-2 -4 1 -10z"/>
<path d="M1735 3340 c3 -5 8 -10 11 -10 3 0 2 5 -1 10 -3 6 -8 10 -11 10 -3 0
-2 -4 1 -10z"/>
<path d="M1833 3333 c4 -3 10 -3 14 0 3 4 0 7 -7 7 -7 0 -10 -3 -7 -7z"/>
<path d="M2020 3320 c0 -7 3 -10 7 -7 3 4 3 10 0 14 -4 3 -7 0 -7 -7z"/>
<path d="M2375 3320 c3 -5 8 -10 11 -10 3 0 2 5 -1 10 -3 6 -8 10 -11 10 -3 0
-2 -4 1 -10z"/>
<path d="M1724 3298 c-4 -7 -3 -8 4 -4 7 4 12 9 12 12 0 8 -9 4 -16 -8z"/>
<path d="M1644 3268 c-4 -7 -3 -8 4 -4 12 7 16 16 8 16 -3 0 -8 -5 -12 -12z"/>
<path d="M1910 3270 c0 -7 3 -10 7 -7 3 4 3 10 0 14 -4 3 -7 0 -7 -7z"/>
<path d="M1695 3250 c3 -5 8 -10 11 -10 3 0 2 5 -1 10 -3 6 -8 10 -11 10 -3 0
-2 -4 1 -10z"/>
<path d="M1965 3210 c3 -5 8 -10 11 -10 3 0 2 5 -1 10 -3 6 -8 10 -11 10 -3 0
-2 -4 1 -10z"/>
<path d="M1568 3203 c7 -3 16 -2 19 1 4 3 -2 6 -13 5 -11 0 -14 -3 -6 -6z"/>
<path d="M2188 3193 c-10 -2 -18 -10 -18 -16 0 -7 -4 -6 -10 3 -6 10 -10 11
-10 3 0 -9 -21 -13 -71 -13 -53 0 -68 3 -63 13 4 6 -1 5 -12 -4 -24 -21 -135
-73 -151 -72 -7 0 -10 -3 -8 -8 3 -4 -22 -18 -55 -30 -33 -12 -83 -39 -112
-60 -28 -22 -55 -39 -60 -39 -5 0 -43 -29 -85 -65 -98 -84 -180 -138 -195
-129 -7 4 -8 3 -4 -4 4 -7 3 -12 -3 -12 -6 0 -34 -19 -63 -43 -29 -23 -71 -54
-93 -67 -22 -13 -42 -27 -45 -30 -3 -4 -26 -21 -52 -39 -48 -32 -82 -74 -56
-69 8 2 12 -6 10 -22 -1 -18 1 -21 7 -11 6 10 21 -6 58 -60 28 -41 48 -80 45
-88 -3 -8 0 -11 6 -7 11 6 69 -90 65 -106 -2 -4 1 -8 6 -8 5 0 11 -8 14 -17 4
-10 12 -34 20 -54 7 -20 12 -44 11 -53 -1 -10 0 -15 3 -12 4 3 12 -3 19 -13
18 -25 59 -133 56 -147 -1 -7 5 -15 14 -18 17 -7 43 18 44 41 0 22 33 82 42
77 4 -3 5 2 2 11 -4 9 0 23 9 33 8 9 22 32 31 50 10 19 21 30 28 26 6 -4 8 -3
5 3 -4 5 2 19 11 29 10 10 35 45 57 77 21 33 44 61 52 64 7 3 11 9 8 13 -6 10
87 110 103 110 6 0 12 5 12 11 0 21 71 100 83 93 7 -4 9 -4 5 1 -8 9 51 89 60
81 3 -3 12 3 19 14 8 11 19 17 25 14 7 -5 8 -2 3 5 -4 8 4 24 21 43 37 39 111
90 117 80 2 -4 3 -2 1 5 -1 6 6 19 17 29 10 9 19 13 19 8 0 -5 10 11 21 36 26
55 43 184 28 212 -6 11 -12 27 -14 36 -2 9 -6 25 -10 35 -5 13 -2 17 12 17 11
0 25 11 31 25 6 14 11 24 9 24 -1 -1 -10 -3 -19 -6z"/>
<path d="M1484 3178 c-4 -7 -3 -8 4 -4 12 7 16 16 8 16 -3 0 -8 -5 -12 -12z"/>
<path d="M1524 3178 c-4 -7 -3 -8 4 -4 12 7 16 16 8 16 -3 0 -8 -5 -12 -12z"/>
<path d="M1350 3110 c0 -7 3 -10 7 -7 3 4 3 10 0 14 -4 3 -7 0 -7 -7z"/>
<path d="M1553 3113 c4 -3 10 -3 14 0 3 4 0 7 -7 7 -7 0 -10 -3 -7 -7z"/>
<path d="M1294 3068 c-4 -7 -3 -8 4 -4 12 7 16 16 8 16 -3 0 -8 -5 -12 -12z"/>
<path d="M2213 3063 c4 -3 10 -3 14 0 3 4 0 7 -7 7 -7 0 -10 -3 -7 -7z"/>
<path d="M1343 3023 c4 -3 10 -3 14 0 3 4 0 7 -7 7 -7 0 -10 -3 -7 -7z"/>
<path d="M1275 2970 c3 -5 8 -10 11 -10 3 0 2 5 -1 10 -3 6 -8 10 -11 10 -3 0
-2 -4 1 -10z"/>
<path d="M2411 2954 c0 -11 3 -14 6 -6 3 7 2 16 -1 19 -3 4 -6 -2 -5 -13z"/>
<path d="M1393 2895 c0 -8 4 -12 9 -9 5 3 6 10 3 15 -9 13 -12 11 -12 -6z"/>
<path d="M2420 2860 c0 -7 3 -10 7 -7 3 4 3 10 0 14 -4 3 -7 0 -7 -7z"/>
<path d="M1385 2850 c3 -5 8 -10 11 -10 3 0 2 5 -1 10 -3 6 -8 10 -11 10 -3 0
-2 -4 1 -10z"/>
<path d="M1240 2830 c0 -7 3 -10 7 -7 3 4 3 10 0 14 -4 3 -7 0 -7 -7z"/>
<path d="M640 2816 c0 -2 7 -9 15 -16 13 -11 14 -10 9 4 -5 14 -24 23 -24 12z"/>
<path d="M2384 2808 c-4 -7 -3 -8 4 -4 12 7 16 16 8 16 -3 0 -8 -5 -12 -12z"/>
<path d="M934 2788 c-4 -7 -3 -8 4 -4 7 4 12 9 12 12 0 8 -9 4 -16 -8z"/>
<path d="M394 2778 c-4 -7 -3 -8 4 -4 7 4 12 9 12 12 0 8 -9 4 -16 -8z"/>
<path d="M2283 2759 c-2 -23 3 -25 10 -4 4 8 3 16 -1 19 -4 3 -9 -4 -9 -15z"/>
<path d="M2404 2748 c-4 -7 -3 -8 4 -4 7 4 12 9 12 12 0 8 -9 4 -16 -8z"/>
<path d="M465 2740 c-3 -5 -1 -10 4 -10 6 0 11 5 11 10 0 6 -2 10 -4 10 -3 0
-8 -4 -11 -10z"/>
<path d="M853 2743 c4 -3 10 -3 14 0 3 4 0 7 -7 7 -7 0 -10 -3 -7 -7z"/>
<path d="M363 2723 c4 -3 10 -3 14 0 3 4 0 7 -7 7 -7 0 -10 -3 -7 -7z"/>
<path d="M2073 2723 c4 -3 10 -3 14 0 3 4 0 7 -7 7 -7 0 -10 -3 -7 -7z"/>
<path d="M1144 2708 c-4 -7 -3 -8 4 -4 7 4 12 9 12 12 0 8 -9 4 -16 -8z"/>
<path d="M1033 2703 c4 -3 10 -3 14 0 3 4 0 7 -7 7 -7 0 -10 -3 -7 -7z"/>
<path d="M187 2586 c-289 -676 -143 -1487 362 -2018 492 -518 1196 -667 1844
-391 59 25 107 49 107 52 0 4 -32 15 -72 24 -40 10 -107 33 -149 52 -42 19
-82 35 -88 35 -7 0 -10 4 -7 9 4 5 -2 7 -12 5 -14 -4 -111 50 -167 93 -6 4
-27 17 -48 27 -20 11 -55 36 -76 57 -22 20 -42 35 -45 32 -2 -3 -18 13 -34 36
-16 22 -53 59 -81 82 -29 22 -51 43 -48 45 2 2 -21 29 -51 58 -33 34 -51 59
-46 67 4 7 3 9 -4 5 -6 -4 -23 17 -42 51 -17 32 -56 92 -87 133 -30 41 -66 98
-78 125 -63 142 -78 182 -79 207 -1 15 -5 28 -10 28 -4 0 -6 7 -3 15 4 8 2 17
-4 20 -5 4 -7 11 -4 16 4 5 1 9 -4 9 -6 0 -11 5 -11 11 0 5 -11 26 -25 46 -13
20 -22 40 -19 45 3 4 1 8 -4 8 -14 0 -45 77 -38 95 3 9 2 13 -4 10 -18 -11
-103 152 -181 348 -17 42 -53 112 -84 165 -6 9 -31 45 -56 79 l-46 61 -41 -45
c-22 -25 -50 -72 -63 -105 -17 -46 -25 -58 -38 -53 -12 5 -13 4 -4 -6 9 -9 8
-20 -6 -48 -10 -20 -30 -76 -45 -126 -15 -49 -30 -97 -34 -106 -6 -14 -20 -13
-127 12 -66 15 -122 28 -125 29 -3 1 -12 3 -20 4 -18 1 -16 61 2 83 6 7 8 13
4 13 -10 0 23 73 37 82 8 5 8 8 1 8 -7 0 -9 11 -6 25 3 17 11 25 26 26 17 0
18 2 5 7 -17 7 -19 3 69 192 24 51 62 111 119 186 l23 31 -30 13 c-16 7 -30
17 -30 22 0 5 -4 7 -9 3 -12 -7 -101 16 -101 26 0 4 -15 11 -32 14 -18 4 -59
18 -90 30 l-56 23 -35 -82z"/>
<path d="M643 2653 c4 -3 10 -3 14 0 3 4 0 7 -7 7 -7 0 -10 -3 -7 -7z"/>
<path d="M605 2620 c3 -5 8 -10 11 -10 3 0 2 5 -1 10 -3 6 -8 10 -11 10 -3 0
-2 -4 1 -10z"/>
<path d="M2215 2550 c3 -5 8 -10 11 -10 3 0 2 5 -1 10 -3 6 -8 10 -11 10 -3 0
-2 -4 1 -10z"/>
<path d="M2085 2540 c3 -5 8 -10 11 -10 3 0 2 5 -1 10 -3 6 -8 10 -11 10 -3 0
-2 -4 1 -10z"/>
<path d="M2190 2530 c0 -7 3 -10 7 -7 3 4 3 10 0 14 -4 3 -7 0 -7 -7z"/>
<path d="M2065 2490 c3 -5 8 -10 11 -10 3 0 2 5 -1 10 -3 6 -8 10 -11 10 -3 0
-2 -4 1 -10z"/>
<path d="M994 2478 c-4 -7 -3 -8 4 -4 12 7 16 16 8 16 -3 0 -8 -5 -12 -12z"/>
<path d="M930 2410 c0 -7 3 -10 7 -7 3 4 3 10 0 14 -4 3 -7 0 -7 -7z"/>
<path d="M835 2380 c3 -5 8 -10 11 -10 3 0 2 5 -1 10 -3 6 -8 10 -11 10 -3 0
-2 -4 1 -10z"/>
<path d="M830 2350 c0 -7 3 -10 7 -7 3 4 3 10 0 14 -4 3 -7 0 -7 -7z"/>
<path d="M1820 2340 c0 -7 3 -10 7 -7 3 4 3 10 0 14 -4 3 -7 0 -7 -7z"/>
<path d="M620 2320 c0 -7 3 -10 7 -7 3 4 3 10 0 14 -4 3 -7 0 -7 -7z"/>
<path d="M834 2288 c-4 -7 -3 -8 4 -4 12 7 16 16 8 16 -3 0 -8 -5 -12 -12z"/>
<path d="M1665 2280 c3 -5 8 -10 11 -10 3 0 2 5 -1 10 -3 6 -8 10 -11 10 -3 0
-2 -4 1 -10z"/>
<path d="M563 2273 c4 -3 10 -3 14 0 3 4 0 7 -7 7 -7 0 -10 -3 -7 -7z"/>
<path d="M1054 2238 c-4 -7 -3 -8 4 -4 12 7 16 16 8 16 -3 0 -8 -5 -12 -12z"/>
<path d="M920 2200 c-8 -5 -10 -10 -5 -10 6 0 17 5 25 10 8 5 11 10 5 10 -5 0
-17 -5 -25 -10z"/>
<path d="M1889 2193 c-13 -16 -12 -17 4 -4 9 7 17 15 17 17 0 8 -8 3 -21 -13z"/>
<path d="M443 2193 c4 -3 10 -3 14 0 3 4 0 7 -7 7 -7 0 -10 -3 -7 -7z"/>
<path d="M1180 2190 c0 -7 3 -10 7 -7 3 4 3 10 0 14 -4 3 -7 0 -7 -7z"/>
<path d="M1676 2147 c3 -10 9 -15 12 -12 3 3 0 11 -7 18 -10 9 -11 8 -5 -6z"/>
<path d="M593 2133 c4 -3 10 -3 14 0 3 4 0 7 -7 7 -7 0 -10 -3 -7 -7z"/>
<path d="M1815 2110 c3 -5 8 -10 11 -10 3 0 2 5 -1 10 -3 6 -8 10 -11 10 -3 0
-2 -4 1 -10z"/>
<path d="M414 2078 c-4 -7 -3 -8 4 -4 12 7 16 16 8 16 -3 0 -8 -5 -12 -12z"/>
<path d="M586 2078 c3 -5 10 -6 15 -3 13 9 11 12 -6 12 -8 0 -12 -4 -9 -9z"/>
<path d="M1750 2070 c0 -7 3 -10 7 -7 3 4 3 10 0 14 -4 3 -7 0 -7 -7z"/>
<path d="M1630 2030 c0 -7 3 -10 7 -7 3 4 3 10 0 14 -4 3 -7 0 -7 -7z"/>
<path d="M1160 2020 c0 -7 3 -10 7 -7 3 4 3 10 0 14 -4 3 -7 0 -7 -7z"/>
<path d="M1564 2008 c-4 -7 -3 -8 4 -4 12 7 16 16 8 16 -3 0 -8 -5 -12 -12z"/>
<path d="M1485 1970 c3 -5 8 -10 11 -10 3 0 2 5 -1 10 -3 6 -8 10 -11 10 -3 0
-2 -4 1 -10z"/>
<path d="M1245 1950 c3 -5 8 -10 11 -10 3 0 2 5 -1 10 -3 6 -8 10 -11 10 -3 0
-2 -4 1 -10z"/>
<path d="M286 1922 c-3 -5 1 -9 9 -9 8 0 12 4 9 9 -3 4 -7 8 -9 8 -2 0 -6 -4
-9 -8z"/>
<path d="M1070 1890 c0 -7 3 -10 7 -7 3 4 3 10 0 14 -4 3 -7 0 -7 -7z"/>
<path d="M1415 1880 c3 -5 8 -10 11 -10 3 0 2 5 -1 10 -3 6 -8 10 -11 10 -3 0
-2 -4 1 -10z"/>
<path d="M1165 1870 c3 -5 8 -10 11 -10 3 0 2 5 -1 10 -3 6 -8 10 -11 10 -3 0
-2 -4 1 -10z"/>
<path d="M1264 1788 c-4 -7 -3 -8 4 -4 12 7 16 16 8 16 -3 0 -8 -5 -12 -12z"/>
<path d="M1450 1760 c0 -7 3 -10 7 -7 3 4 3 10 0 14 -4 3 -7 0 -7 -7z"/>
<path d="M1614 1758 c-4 -7 -3 -8 4 -4 7 4 12 9 12 12 0 8 -9 4 -16 -8z"/>
<path d="M1224 1678 c-4 -7 -3 -8 4 -4 12 7 16 16 8 16 -3 0 -8 -5 -12 -12z"/>
<path d="M1230 1600 c0 -7 3 -10 7 -7 3 4 3 10 0 14 -4 3 -7 0 -7 -7z"/>
<path d="M1306 1528 c3 -5 10 -6 15 -3 13 9 11 12 -6 12 -8 0 -12 -4 -9 -9z"/>
<path d="M1383 1393 c4 -3 10 -3 14 0 3 4 0 7 -7 7 -7 0 -10 -3 -7 -7z"/>
<path d="M1510 1330 c-9 -6 -10 -10 -3 -10 6 0 15 5 18 10 8 12 4 12 -15 0z"/>
<path d="M1694 1168 c-4 -7 -3 -8 4 -4 12 7 16 16 8 16 -3 0 -8 -5 -12 -12z"/>
<path d="M1664 1138 c-4 -7 -3 -8 4 -4 12 7 16 16 8 16 -3 0 -8 -5 -12 -12z"/>
<path d="M1394 1128 c-4 -7 -3 -8 4 -4 12 7 16 16 8 16 -3 0 -8 -5 -12 -12z"/>
<path d="M1710 1090 c0 -7 3 -10 7 -7 3 4 3 10 0 14 -4 3 -7 0 -7 -7z"/>
<path d="M1530 1000 c0 -7 3 -10 7 -7 3 4 3 10 0 14 -4 3 -7 0 -7 -7z"/>
<path d="M1843 953 c4 -3 10 -3 14 0 3 4 0 7 -7 7 -7 0 -10 -3 -7 -7z"/>
<path d="M1954 768 c-4 -7 -3 -8 4 -4 12 7 16 16 8 16 -3 0 -8 -5 -12 -12z"/>
<path d="M2135 680 c3 -5 8 -10 11 -10 3 0 2 5 -1 10 -3 6 -8 10 -11 10 -3 0
-2 -4 1 -10z"/>
<path d="M1925 661 c-3 -5 -2 -12 3 -15 5 -3 9 1 9 9 0 17 -3 19 -12 6z"/>
<path d="M2024 618 c-4 -7 -3 -8 4 -4 12 7 16 16 8 16 -3 0 -8 -5 -12 -12z"/>
<path d="M2116 592 c-3 -5 1 -9 9 -9 8 0 12 4 9 9 -3 4 -7 8 -9 8 -2 0 -6 -4
-9 -8z"/>
<path d="M2284 588 c-4 -7 -3 -8 4 -4 7 4 12 9 12 12 0 8 -9 4 -16 -8z"/>
<path d="M2287 529 c7 -7 15 -10 18 -7 3 3 -2 9 -12 12 -14 6 -15 5 -6 -5z"/>
<path d="M2150 510 c0 -7 3 -10 7 -7 3 4 3 10 0 14 -4 3 -7 0 -7 -7z"/>
<path d="M2203 353 c4 -3 10 -3 14 0 3 4 0 7 -7 7 -7 0 -10 -3 -7 -7z"/>
<path d="M2480 330 c0 -7 3 -10 7 -7 3 4 3 10 0 14 -4 3 -7 0 -7 -7z"/>
</g>
</svg>
